# xmcd
#
# Track frame offsets:
# 150
# 26362
# 41047
# 57075
# 77785
# 90695
# 110262
# 130215
# 144770
# 155257
# 171512
#
# Disc length: 2789 seconds
#
#
# Revision: 0
# Processed by: cddbd v1.5PL3 Copyright (c) Steve Scherf et al.
# Submitted via: FreeRIP 2.60 
#
DISCID=850ae30b
DTITLE=Flying Burrito Brothers - The Bicentennial Burritos
DYEAR=1999
DGENRE=Rock
TTITLE0=Orange Blossom Special
TTITLE1=Toe Tappin' Music
TTITLE2=Old Time Rock And Roll
TTITLE3=Sin City
TTITLE4=Close Up The Honky Tonks
TTITLE5=Do Right Woman
TTITLE6=Bon Soir Blues
TTITLE7=Diggy Liggy Li
TTITLE8=Dim Lights, Thick Smoke
TTITLE9=Easy To Get On
TTITLE10=Christine's Tune
EXTD=
EXTT0=
EXTT1=
EXTT2=
EXTT3=
EXTT4=
EXTT5=
EXTT6=
EXTT7=
EXTT8=
EXTT9=
EXTT10=
PLAYORDER=
